<svg width="292" height="136" viewBox="0 0 292 136" xmlns="http://www.w3.org/2000/svg">
    <rect width="292" height="136" fill="#222" rx="24" ry="24" stroke="#333" stroke-width="2" />
    <rect width="284" height="128" fill="none" x="4" y="4" rx="22" ry="22" stroke="#666" stroke-width="2" />
    <rect width="276" height="120" fill="none" x="8" y="8" rx="20" ry="20" stroke="#666" stroke-width="2" />
    <rect width="268" height="112" fill="none" x="12" y="12" rx="18" ry="18" stroke="#666" stroke-width="2" />
    <rect width="260" height="104" fill="none" x="16" y="16" rx="16" ry="16" stroke="#666" stroke-width="2" />
    <g transform="translate(20, 20)">
        <rect width="252" height="96" fill="#ffcc00" rx="12" ry="12" stroke="#333" stroke-width="3" />
        <circle cx="48" cy="48" r="36" fill="#aa0000" stroke="#222" stroke-width="3" />
        <circle cx="126" cy="48" r="36" fill="#ffff00" stroke="#222" stroke-width="3" />
        <circle cx="204" cy="48" r="36" fill="#00aa00" stroke="#222" stroke-width="3" />
        <path d="M 18 68 A 36 36, 0, 1, 1, 78 68 A 32 32, 0, 1, 0, 18 68 Z " fill="#222" />
        <path d="M 96 68 A 36 36, 0, 1, 1, 156 68 A 32 32, 0, 1, 0, 96 68 Z " fill="#222" />
        <path d="M 174 68 A 36 36, 0, 1, 1, 234 68 A 32 32, 0, 1, 0, 174 68 Z" fill="#222" />
    </g>
</svg>